<?xml version="1.0" encoding="UTF-8"?>
<svg id="_图层_1" data-name="图层 1" xmlns="http://www.w3.org/2000/svg" viewBox="0 0 83.85 93.82">
  <defs>
    <style>
      .cls-1 {
        fill: #fff;
        stroke-width: 0px;
      }
    </style>
  </defs>
  <path class="cls-1" d="m83.46,21.54c-.68-.64-1.42-1.22-2.11-1.86-.18-.17-.35-.45-.37-.7-.14-1.31-.22-2.62-.36-3.93-.12-1.14-.3-2.26-.44-3.38,1.52-.72,2.19-1.8,1.97-3.11-.31-1.87-2.02-3.07-3.9-2.77-.26.04-.65-.03-.81-.21-1.9-2.15-4.27-3.53-6.97-4.38-4.34-1.36-8.78-1.48-13.22-.81-3.83.58-7.18,2.2-9.68,5.28-.12.15-.42.23-.62.21-1.47-.19-2.8.05-3.82,1.23-1.32,1.54-.97,3.35.81,4.29.2.11.41.19.67.32-.11.6-.22,1.15-.3,1.71-.34,2.33-.56,4.69-1.03,7-.88,4.29-3.23,7.52-7.32,9.32-.99.44-2.01.83-3.02,1.21-3.62,1.35-7.3,2.54-10.85,4.06-4.97,2.13-9.41,5.09-12.79,9.43-2.77,3.55-4.7,7.53-6.17,11.76-1.4,4.04-2.28,8.19-2.8,12.44-.42,3.43-.5,6.84.17,10.24,1.09,5.52,4.14,9.55,9.28,11.91,2.86,1.32,5.92,1.73,9.03,1.76,4.77.04,9.44-.82,14.09-1.77,4.21-.86,8.38-1.89,12.67-2.39,3.38-.4,6.52.05,9.43,1.93,1.31.85,2.68,1.62,4.07,2.35,1.51.8,3.12,1.29,4.88,1.08,2.01-.24,3.38-1.94,3.03-3.92-.15-.83-.38-1.68-.75-2.44-1.57-3.26-4.14-5.52-7.36-7.08-.8-.39-1.62-.72-2.44-1.08.2-.04.39-.01.57,0,1.71.11,3.38-.12,4.95-.83,1.48-.67,1.98-2.04,1.36-3.55-.33-.81-.94-1.35-1.7-1.67-.68-.29-1.01-.75-1.14-1.44-.27-1.37-.57-2.74-.83-4.11-.13-.68-.2-1.38-.3-2.06.06-.04.13-.08.19-.11.03.08.03.18.09.24,2.14,2.21,3.93,4.65,5.31,7.41.87,1.74,2.11,3.23,3.68,4.38.69.51,1.5.98,2.32,1.17,3.02.69,5.94.29,8.67-1.21.96-.53,1.62-1.31,1.46-2.48-.18-1.29-.89-2.2-2.17-2.57-.44-.13-.91-.17-1.36-.19-.9-.03-1.57-.48-2.03-1.18-.34-.52-.65-1.1-.76-1.7-.31-1.62-.6-3.25-.74-4.89-.32-3.62-.56-7.25-.81-10.88-.4-5.89-.6-11.78.04-17.67.25-2.26.7-4.48,2.03-6.38,1.2-1.71,2.52-3.33,3.83-5.07.41.48.8.91,1.16,1.36.32.41.7.55,1.14.24.46-.32.4-.76.1-1.15-.39-.51-.84-.98-1.24-1.49-.11-.13-.21-.37-.17-.51.19-.56.45-1.11.71-1.73.56.48,1.1.93,1.63,1.4.37.33.77.59,1.21.17.41-.43.16-.88-.18-1.21h0ZM44.84,7.47c.55,0,.85.37.93.79.05-.01.1-.02.15-.02-.04.09-.08.17-.12.26-.01.29-.13.56-.36.75-.05.1-.09.19-.14.3-.04-.05-.07-.1-.11-.15-.1.04-.21.07-.34.07-1.3,0-1.3-2,0-2h0Zm28.64,65.01c.97,1.5,2.41,2.28,4.25,2.19.39-.02.77-.02.85.56-1.32.74-2.74,1.15-4.25,1.32-3.24.35-5.29-1.38-6.88-3.9-.61-.97-1.05-2.06-1.71-2.99-1.2-1.7-2.51-3.34-3.78-4.99-.29-.38-.64-.71-.98-1.09,3.68-3.62,7.18-7.35,9.61-12.01.02.21.04.41.06.62.29,3.81.56,7.63.88,11.44.17,2,.33,4,.69,5.97.18,1,.7,2,1.26,2.88h0Zm-.94-55.12c.21.18.54.21.81.32,1.37.55,2.76,1.06,4.11,1.66,1.07.48,1.09.69.58,1.87-.14-.1-.26-.19-.4-.27-1.53-.94-3.05-1.89-4.59-2.81-.26-.16-.57-.25-.87-.34-.42-.12-.73.05-.91.46-.17.4-.01.71.32.91.5.31,1.03.56,1.52.87,1.18.75,2.34,1.53,3.51,2.3.22.15.41.35.64.55-.43.56-.84,1.08-1.28,1.65-.15-.21-.26-.36-.37-.5-.9-1.07-1.8-2.14-2.69-3.22-.19-.23-.37-.49-.49-.76-.16-.38-.35-.44-.73-.26-.88.43-1.81.67-2.79.37-.31-.1-.63-.24-.9-.43-.78-.55-.78-.93-.13-1.61.65-.68,1.27-1.39,1.86-2.12.38-.48.43-1.04.13-1.59-.31-.57-.81-.84-1.45-.81-1.61.05-3.22.11-4.83.19-.58.03-1.06.29-1.28.86-.22.55-.12,1.1.3,1.51.89.85,1.8,1.69,2.73,2.49.55.47.57.62-.05.99-1.46.85-2.8.78-4.1-.25-.33-.26-.7-.36-.94-.03-.17.23-.25.7-.13.94.5,1.01,1.41,1.44,2.5,1.51,1.49.11,2.51-.21,3.91-1.18.66.65,1.44,1.16,2.38,1.2.76.03,1.54-.05,2.28-.19.34-.06.58-.12.81.18.91,1.2,1.83,2.39,2.75,3.57.24.3.21.54-.06.81-2.88,3-3.75,6.74-4.04,10.73-.2,2.77-.38,5.55-.81,8.29-.76,4.74-3.15,8.72-6.3,12.26-1.28,1.44-2.63,2.81-3.96,4.2-.11.11-.24.21-.49.41v-1.62c.01-1.88.02-3.77.03-5.65,0-.25-.01-.5-.05-.75-.08-.53-.43-.82-.94-.86-.51-.04-.92.21-1.03.73-.15.71-.28,1.44-.34,2.16-.43,5.29.03,10.52,1.17,15.7.09.41.2.81.29,1.22.26,1.13.9,1.9,2.02,2.26.33.11.61.35,1.02.6-.87.65-1.71.79-2.54.89-2.4.28-4.54-.38-6.26-2.09-4.63-4.58-7.94-10-9.88-16.22-.59-1.88-.87-3.86-1.3-5.79-.04-.2-.07-.42-.13-.61-.19-.59-.68-.86-1.33-.77-.55.08-.98.5-.9,1.09.18,1.41.37,2.82.69,4.2,1.21,5.3,3.48,10.13,6.59,14.65-1.47.66-2.96,1.15-4.56,1.16-1.38.01-2.76-.05-4.14-.11-.32-.02-.64-.16-.95-.29-1.76-.77-3.6-1.17-5.42-1.28-.13-1.58-.11-3.18-.4-4.73-.79-4.2-2.78-7.67-6.74-9.65-1.34-.67-2.85-1.03-4.31-1.46-.72-.21-1.44.26-1.6.88-.18.71.25,1.37,1.06,1.59.82.23,1.67.39,2.48.66,3.62,1.24,5.59,3.95,6.48,7.54.64,2.56.64,5.12-.1,7.68-.38,1.3-.4,2.6.28,3.84.21.39.49.68.97.67,1.67-.03,3.34-.06,5.01-.1,2.11-.05,4.22-.13,6.34-.17.43-.01.86.08,1.29.13l.02.21c-1.06.28-2.1.6-3.17.85-3.55.82-7.15.98-10.78.85-2.34-.08-4.68-.04-7.02.02-1.84.05-3.64-.05-5.36-.76-3.34-1.39-5.22-3.91-5.66-7.5-.07-.55-.22-1.03-.79-1.24-.9-.34-1.67.37-1.57,1.41.49,4.83,3.46,8.49,8.1,9.87,3.77,1.12,7.63,1.4,11.54,1.07,2.46-.21,4.91-.47,7.37-.7.41-.04.84.03,1.25-.01,1.91-.18,3.82-.33,5.73-.57,4.52-.59,9.04-.92,13.5.33,3.53.99,6.44,2.86,8.37,6.06.46.76.78,1.62,1.03,2.47.3.99-.18,1.61-1.2,1.49-.87-.1-1.78-.32-2.56-.71-1.74-.87-3.42-1.83-5.09-2.83-3.23-1.91-6.7-2.31-10.34-1.9-4.77.53-9.4,1.71-14.09,2.64-4.37.86-8.76,1.63-13.24,1.44-3.26-.14-6.37-.82-9.15-2.64-3.6-2.36-5.57-5.75-6.02-9.96-.89-8.33.8-16.26,4.09-23.88,1.8-4.16,4.16-7.96,7.57-11.03,2.56-2.31,5.51-4.03,8.67-5.32,3.65-1.49,7.38-2.78,11.07-4.16,2.36-.88,4.65-1.9,6.59-3.54,2.82-2.38,4.39-5.49,5.04-9.07.48-2.61.75-5.26,1.26-7.86.95-4.84,3.79-8.03,8.57-9.42,3.32-.96,6.71-.81,10.09-.55,2.16.17,4.24.7,6.18,1.7,3.45,1.77,5.46,4.57,5.94,8.44.18,1.41.39,2.81.58,4.22.04.27.04.54.07.89-.2-.08-.34-.14-.49-.19-1.49-.54-2.97-1.1-4.46-1.62-.23-.08-.53-.15-.73-.06-.25.11-.53.36-.59.61-.08.21.12.55.31.71h0Zm-28.55,58.94c-.65-.63-1.46-.87-2.34-.9-.33-.01-.68.03-1-.05-.27-.07-.5-.27-.75-.41.03-.07.05-.13.08-.2,2.66.19,5.15-.4,7.57-1.61,1.76,2.01,3.45,4.12,5.94,5.37-2.91-.39-5.81-.47-8.76-.11.08-.82-.16-1.52-.74-2.09h0Zm-6.65-1.03s-.04.09-.06.13c-2.26.07-4.51.13-6.77.2-.36.01-.49-.15-.5-.47,0-.08-.01-.17-.01-.25,0-1.62.29-1.86,1.84-1.62,1.74.27,3.44.68,4.95,1.65.19.11.37.24.55.36h0ZM79.59,9.65c-1.29,0-1.29-2,0-2s1.29,2,0,2Z"/>
  <path class="cls-1" d="m58.7,16.63c-.26.33-.38.59-.57.73-.21.15-.5.22-.76.29-3.29.88-6.28,2.37-8.96,4.47-.15.12-.3.22-.46.32-.37.22-.69.11-.95-.19-.27-.31-.28-.66.01-.96.34-.34.7-.65,1.09-.95,2.71-2.07,5.76-3.45,9.07-4.25.24-.06.53-.12.74-.04.26.09.47.33.79.58h0Z"/>
  <path class="cls-1" d="m58.57,17.56c.2.17.56.33.6.55.05.26-.09.68-.3.83-.66.48-1.38.85-2.07,1.28-2.1,1.3-4.14,2.68-5.84,4.49-.23.24-.42.52-.64.77-.29.34-.63.58-1.08.25-.42-.31-.51-.75-.18-1.15.62-.75,1.26-1.51,1.98-2.17,2-1.83,4.26-3.28,6.66-4.52.24-.1.5-.18.87-.33h0Z"/>
  <path class="cls-1" d="m57.03,9.25c1.15.04,2.1,1.05,2.07,2.18-.03,1.16-1.01,2.05-2.2,2-1.14-.05-2.08-1.07-2.04-2.2.05-1.14,1.02-2.03,2.17-1.98Z"/>
  <path class="cls-1" d="m72.81,13.14c-1.1.01-2-.86-2.02-1.96-.02-1.1.81-1.95,1.92-1.96,1.14-.01,2.02.87,2.02,2.02-.01,1.05-.85,1.89-1.92,1.9Z"/>
  <path class="cls-1" d="m53.46,26.15c.13-.32.18-.53.28-.7,1.08-1.86,2.39-3.53,3.99-4.97.09-.08.19-.21.29-.22.26-.03.53-.01.79-.01-.01.26.08.59-.05.77-.58.81-1.26,1.56-1.84,2.38-.7.96-1.31,1.99-2.02,2.94-.17.23-.58.4-.86.38-.21-.02-.4-.39-.58-.57h0Z"/>
</svg>