<?xml version="1.0" encoding="utf-8"?>
<!-- Generator: Adobe Illustrator 28.0.0, SVG Export Plug-In . SVG Version: 6.00 Build 0)  -->
<svg version="1.1" id="图层_1" xmlns="http://www.w3.org/2000/svg" xmlns:xlink="http://www.w3.org/1999/xlink" x="0px" y="0px"
	 viewBox="0 0 1920 1080" style="enable-background:new 0 0 1920 1080;" xml:space="preserve">
<g>
	<path d="M1129.66,972.6c-9.75,0.31-20.97-8.44-23.11-18.04c-0.14-0.61-0.23-1.23-0.33-1.84c-1.66-9.5-1.71-10.12-10.97-9.44
		c-21.77,1.62-43.27-1.31-64.87-2.81c-8.31-0.58-16.67-0.49-25.01-0.6c-4.97-0.06-6.24,1.33-7.27,6.07
		c-1.68,7.68-3.51,15.32-9.07,21.41c-7.02,7.69-14.61,8.63-23.28,2.92c-8.56-5.64-12.61-13.12-12.86-23.71
		c-0.39-16.18-2.21-32.32-3.31-48.48c-1.01-14.79-1.84-29.58-2.8-44.37c-1.31-20.15-2.8-40.29-3.94-60.45
		c-0.61-10.71-0.36-21.46-1.05-32.16c-0.82-12.68-2.54-25.3-3.31-37.99c-1.45-23.78-2.86-47.58,0.45-71.34
		c0.88-6.28,1.5-12.6,1.99-18.93c0.13-1.74-0.5-3.6-1.06-5.31c-1.08-3.26-3.3-6.43-3.38-9.68c-0.22-8.94,0.26-17.91,0.83-26.84
		c0.16-2.5,1.38-5.03,2.55-7.33c1.31-2.56,1.05-4.3-1.22-6.14c-7.53-6.14-6.41-16.42,1.97-21.36c6.51-3.83,12.86-4.38,19.38-0.36
		c2.33,1.43,4,0.81,6.4-0.5c6.5-3.56,13.27-6.73,20.17-9.46c5.07-2.01,10.42-3.8,15.79-4.38c6.98-0.75,14.15-0.78,21.15-0.1
		c12.63,1.22,25.19,3.14,37.77,4.89c3.93,0.55,7.79,1.82,11.73,2.09c1.9,0.13,4.68-0.73,5.73-2.14c5.39-7.2,12.46-7.04,19.89-5.02
		c3.07,0.84,6,2.49,8.73,4.2c6.22,3.88,7.79,8.17,6.04,15.32c-0.53,2.18-1.25,4.35-1.46,6.56c-0.13,1.35,0.22,2.98,0.91,4.14
		c7.08,11.85,9.91,24.22,3.96,37.31c-2.68,5.89-3.55,11.54-2.58,18.04c1.53,10.33,1.92,20.82,2.93,31.23
		c1.96,20.08,3.84,40.18,6.11,60.23c2.29,20.2,5.18,40.32,7.48,60.52c2.31,20.31,5.05,40.63,6.08,61.02
		c1.22,24.12,4.81,47.86,8.29,71.67c2.19,14.95,3.85,29.94,1.99,45.1C1145.76,967.34,1140.52,972.26,1129.66,972.6z M1039.77,910.93
		c9.22,0.74,18.56-2.63,26.56-8.99c5.32-4.23,9.38-10.05,14.59-14.45c8.08-6.83,11.55-15.68,12.93-25.7
		c0.63-4.57,1.2-9.15,1.52-13.75c0.79-11.29,1.5-22.58,2.09-33.88c0.3-5.85-0.03-11.73,0.46-17.56c1.4-16.54,0.03-32.9-2.49-49.22
		c-1.26-8.14-5.15-16.06-1.95-24.62c0.2-0.53-1.67-2.25-2.86-2.73c-0.72-0.29-2.01,0.67-2.97,1.2c-8.95,4.99-17.92,0.88-19.96-9.08
		c-0.37-1.8-1.46-3.45-1.8-5.25c-0.4-2.06-1.16-4.6-0.35-6.25c6.13-12.51,12.52-24.89,18.99-37.22c3.81-7.26,8.04-14.3,11.87-21.54
		c1.91-3.61,3.48-7.42,4.97-11.23c2.03-5.2,3.82-10.49,5.74-15.73c0.95-2.57,2.2-5.06,2.91-7.69c2.17-8.14-2.79-13.62-10.8-11.83
		c-9.7,2.18-19.3,4.8-29.01,6.95c-6.26,1.38-12.39,0.9-17.95-2.84c-1.02-0.69-2.17-1.36-3.35-1.61c-2.39-0.5-4.94-1.23-7.24-0.81
		c-1.02,0.19-1.49,2.98-2.35,4.51c-0.54,0.95-1.21,1.94-2.06,2.59c-3.16,2.39-4.14,6.13-2.63,8.98c1.36,2.56,4.69,4.81,7.6,5.64
		c3.73,1.07,7.9,0.78,11.88,0.74c6.16-0.06,7.38-1.82,6.33-7.95c-0.18-1.07,0.57-2.31,0.89-3.47c1.45,0.44,3.42,0.43,4.26,1.41
		c3.67,4.22,1.4,12.23-4.01,13.35c-9.11,1.89-18.3,1.86-26.99-2.13c-2.76-1.27-4.88-1.35-7.62,0.3c-7.35,4.45-15.37,5.69-23.73,3.4
		c-5.42-1.48-7.88-5.26-6.92-10.7c0.22-1.26,1.69-2.31,2.59-3.45c0.69,1.24,1.91,2.45,1.99,3.72c0.26,4.34,2.27,6.98,6.57,6.95
		c3.58-0.02,7.16-0.72,10.71-1.29c4.06-0.66,6.57-3.49,8.39-6.85c2.06-3.79,0.91-6.52-3.02-8.3c-0.89-0.4-1.59-1.28-2.49-1.57
		c-1.65-0.53-3.37-1-5.09-1.1c-5.68-0.33-11.43-0.05-17.04-0.84c-5.73-0.81-11.31-2.65-16.97-3.94c-9.58-2.18-17.81,1.26-24.83,7.22
		c-7.55,6.4-11.21,15.43-5.99,26.48c3.35,7.09,6.07,14.49,8.75,21.87c3.83,10.53,8.42,20.74,16.71,28.4
		c10.06,9.3,10.13,22.8,15.52,34.02c0.74,1.54,0.43,3.72,0.19,5.56c-1.45,11.26-10.45,15.38-19.88,9.24c-0.81-0.53-2-0.47-3.01-0.68
		c-0.15,1.06-0.51,2.15-0.4,3.18c0.31,2.93,0.86,5.83,1.23,8.75c2.23,17.68,4.43,35.37,6.68,53.06c0.63,4.94,1.71,9.85,2.03,14.81
		c1.52,23.25,5.45,46.05,13.05,68.09c2.46,7.12,4.81,14.51,10.46,20.06C1012.48,907,1024.77,910.82,1039.77,910.93z M952.24,865.24
		c-0.21,0.01-0.43,0.03-0.64,0.04c1.06,15.92,2.02,31.84,3.2,47.75c0.96,12.92,2.31,25.8,3.21,38.72
		c0.46,6.59,7.1,15.41,13.58,16.53c2.41,0.42,5.34,0.05,7.52-1.01c4.31-2.08,8.06-5.22,9.56-10.02c1.78-5.68,3.53-11.43,4.54-17.28
		c0.59-3.4,1.81-4.91,5.12-4.97c3.36-0.06,6.73-0.32,10.09-0.3c11.55,0.07,23.12-0.1,34.65,0.41c15.55,0.69,31.07,2.01,46.61,2.86
		c5.21,0.29,10.45,0.01,15.68-0.09c3.08-0.06,5.02,1.08,5.33,4.38c0.31,3.35,0.57,6.71,1.09,10.03c1.38,8.92,9.84,15.32,18.84,14.39
		c5.64-0.58,8.8-3.22,9.3-8.87c0.79-9.04,1.75-18.16,1.38-27.19c-0.4-9.81-2.27-19.56-3.47-29.34c-2.04-16.7-4.34-33.38-6-50.12
		c-1.94-19.59-3.11-39.26-4.99-58.85c-1.69-17.62-3.91-35.19-5.85-52.79c-1.86-16.85-3.59-33.72-5.49-50.57
		c-1.31-11.64-2.87-23.24-4.18-34.88c-0.7-6.19-1.05-12.41-1.68-18.61c-0.08-0.83-0.84-1.59-1.28-2.39
		c-0.64,0.49-1.48,0.85-1.9,1.49c-1.15,1.78-2.18,3.63-3.14,5.52c-3.44,6.76-6.56,13.69-10.3,20.28
		c-8.2,14.45-17.66,28.3-19.55,45.47c-0.44,4.03-1.28,8.4,2.59,10.96c3.8,2.52,7.95,1.1,11.65-1.07c1.05-0.62,2.1-1.44,2.81-2.41
		c2.79-3.79,5.36-7.74,8.2-11.49c1.08-1.43,2.51-2.73,4.06-3.6c0.84-0.47,2.26,0.07,3.42,0.16c-0.14,1.03,0.02,2.27-0.49,3.06
		c-1.63,2.5-3.75,4.69-5.25,7.25c-2.14,3.66-5.99,7.21-1.7,11.94c0.5,0.55,0.4,1.98,0.11,2.86c-1.9,5.87-0.47,11.54,0.48,17.36
		c1.78,10.94,3.79,21.91,4.43,32.94c0.64,11.04-1.22,22.24-0.31,33.23c1.7,20.55-1.61,40.57-4.64,60.65
		c-1.2,7.97-4.3,15.33-10.3,21.18c-4.36,4.26-8.37,8.88-12.76,13.1c-5.96,5.74-12.5,10.95-20.83,12.45
		c-13.94,2.52-27.9,2.33-41.01-3.76c-7.67-3.56-14.95-8.3-19.57-15.63c-3.02-4.8-5.31-10.23-6.96-15.67
		c-4.62-15.26-9.04-30.61-10.64-46.57c-1.35-13.51-2.62-27.03-4-40.53c-1.66-16.12-3.47-32.22-5.06-48.35
		c-0.42-4.31-0.15-8.69-0.42-13.02c-0.17-2.74-0.35-5.61-1.27-8.15c-0.87-2.4-2.79-4.4-4.07-6.68c-0.99-1.77-4.21-3.72-1.69-5.6
		c2.82-2.09,4.12,1.52,5.59,3.28c3.27,3.9,6.25,8.05,9.65,11.82c1.45,1.61,3.11,3.81,6.05,2.47c2.91-1.32,4.56-3.58,4.73-6.65
		c0.28-5.04,1.1-10.17-2.8-14.54c-1.45-1.63-2.29-3.85-3.17-5.91c-0.45-1.07-0.33-2.37-0.55-3.56c-0.4-2.18-0.35-4.66-1.41-6.46
		c-1.56-2.64-4.06-4.69-5.94-7.17c-3.61-4.76-7.77-9.27-10.41-14.54c-4.68-9.31-8.38-19.12-12.57-28.68
		c-0.45-1.03-1.46-1.82-2.22-2.72c-0.71,1.05-1.9,2.03-2.04,3.15c-1.12,8.64-2.64,17.3-2.88,25.98c-0.41,14.7-0.55,29.46,0.22,44.14
		c1.88,35.86,4.32,71.7,6.58,107.54C950.07,834.14,951.19,849.69,952.24,865.24z M1113.72,593.16c0.26-1.83,0.74-2.96,0.49-3.9
		c-1.31-5-1.99-10.42-4.47-14.8c-2.62-4.64-4.06-8.65-2.33-13.89c1.67-5.04,0.04-9.62-4.62-12.18c-3.17-1.74-6.91-2.74-10.52-3.28
		c-4.55-0.68-7.94,1.82-9.35,6.18c-0.94,2.9-2.64,3.93-5.64,3.35c-8.18-1.58-16.35-3.24-24.58-4.5c-11.7-1.79-23.4-4.04-35.18-4.66
		c-18.18-0.97-34.81,4.67-49.83,14.92c-2.87,1.96-5.37,2.96-8.17-0.2c-1.1-1.24-2.82-2.08-4.42-2.67
		c-5.92-2.19-12.94,0.96-15.98,6.99c-2.42,4.81-1.08,7.92,5.27,11.94c2.31,1.46,3.18,3.55,1.7,5.69
		c-5.34,7.71-3.78,16.55-4.29,25.02c-0.1,1.58,1.2,3.25,1.85,4.87c1.19-1.16,2.52-2.2,3.54-3.49c8.93-11.37,19.67-18.66,35-15.79
		c2.41,0.45,4.1-0.19,3.83-2.98c-0.38-3.89,1.81-6.37,5.04-6.67c3.08-0.29,6.84,0.33,9.28,2.03c1.43,0.99,1.42,4.96,1.04,7.43
		c-0.56,3.58-0.25,4.99,3.26,4.84c4.79-0.2,9.6-0.82,14.3-1.79c2.86-0.59,5.5-2.19,8.27-3.27c9.09-3.55,17.49-0.2,25.63,3.17
		c6.07,2.52,12.4,2.46,18.35,1.76c7.81-0.92,15.4-3.83,23.07-5.94C1100.64,589.59,1107.01,587.74,1113.72,593.16z"/>
	<path d="M1059.03,592.13c-4.54,0.03-7.15-2.17-7.25-6.11c-0.1-3.88,4.25-7.68,8.68-7.58c3.69,0.08,7.65,3.82,7.76,7.32
		C1068.34,589.83,1065.08,592.09,1059.03,592.13z"/>
</g>
</svg>
