<?xml version="1.0" encoding="UTF-8"?>
<svg id="_图层_1" data-name="图层 1" xmlns="http://www.w3.org/2000/svg" viewBox="0 0 5037.99 10201.45">
  <defs>
    <style>
      .cls-1 {
	fill: #ff6b6b;
        stroke-width: 0px;
      }
    </style>
  </defs>
  <path class="cls-1" d="m4609.08,10169.97c-229.21,7.29-492.98-198.41-543.29-424.1-3.29-14.34-5.41-28.92-7.76-43.26-39.03-223.33-40.2-237.91-257.89-221.92-511.79,38.08-1017.23-30.8-1525.02-66.06-195.36-13.64-391.89-11.52-587.96-14.1-116.84-1.41-146.69,31.27-170.91,142.7-39.49,180.55-82.52,360.16-213.23,503.32-165.03,180.78-343.46,202.88-547.29,68.65-201.24-132.59-296.45-308.44-302.32-557.39-9.17-380.37-51.96-759.81-77.81-1139.71-23.74-347.7-43.26-695.39-65.82-1043.09-30.8-473.7-65.82-947.17-92.62-1421.11-14.34-251.78-8.46-504.5-24.68-756.04-19.28-298.09-59.71-594.77-77.81-893.1-34.09-559.04-67.23-1118.55,10.58-1677.12,20.69-147.64,35.26-296.21,46.78-445.02,3.06-40.91-11.75-84.63-24.92-124.83-25.39-76.64-77.58-151.16-79.46-227.57-5.17-210.17,6.11-421.04,19.51-630.98,3.76-58.77,32.44-118.25,59.95-172.32,30.8-60.18,24.68-101.09-28.68-144.34-177.02-144.34-150.69-386.01,46.31-502.15,153.04-90.04,302.32-102.97,455.6-8.46,54.78,33.62,94.04,19.04,150.46-11.75,152.81-83.69,311.96-158.21,474.17-222.39,119.19-47.25,244.96-89.33,371.2-102.97,164.09-17.63,332.65-18.34,497.21-2.35,296.92,28.68,592.19,73.82,887.93,114.96,92.39,12.93,183.13,42.79,275.76,49.13,44.67,3.06,110.02-17.16,134.71-50.31,126.71-169.26,292.92-165.5,467.59-118.01,72.17,19.75,141.05,58.54,205.23,98.74,146.22,91.21,183.13,192.07,141.99,360.16-12.46,51.25-29.39,102.26-34.32,154.22-3.06,31.74,5.17,70.06,21.39,97.33,166.44,278.58,232.97,569.38,93.09,877.11-63,138.47-83.46,271.29-60.65,424.1,35.97,242.85,45.14,489.45,68.88,734.18,46.08,472.06,90.27,944.58,143.64,1415.94,53.84,474.88,121.78,947.88,175.85,1422.76,54.31,477.46,118.72,955.16,142.93,1434.51,28.68,567.03,113.08,1125.13,194.89,1684.88,51.48,351.46,90.51,703.85,46.78,1060.25-31.51,253.9-154.69,369.56-410,377.55Zm-2113.21-1449.79c216.75,17.4,436.33-61.83,624.4-211.34,125.07-99.44,220.51-236.26,342.99-339.7,189.95-160.57,271.53-368.62,303.97-604.18,14.81-107.44,28.21-215.11,35.73-323.25,18.57-265.41,35.26-530.83,49.13-796.48,7.05-137.53-.71-275.76,10.81-412.82,32.91-388.84.71-773.44-58.54-1157.1-29.62-191.36-121.07-377.55-45.84-578.79,4.7-12.46-39.26-52.89-67.23-64.18-16.93-6.82-47.25,15.75-69.82,28.21-210.4,117.31-421.28,20.69-469.24-213.46-8.7-42.32-34.32-81.11-42.32-123.42-9.4-48.43-27.27-108.14-8.23-146.93,144.11-294.1,294.33-585.14,446.43-875,89.57-170.67,189.01-336.18,279.05-506.38,44.9-84.87,81.81-174.44,116.84-264,47.72-122.25,89.8-246.61,134.94-369.79,22.33-60.42,51.72-118.95,68.41-180.78,51.02-191.36-65.59-320.19-253.9-278.11-228.03,51.25-453.72,112.84-681.99,163.39-147.17,32.44-291.27,21.16-421.98-66.77-23.98-16.22-51.02-31.97-78.75-37.85-56.19-11.75-116.13-28.92-170.2-19.04-23.98,4.47-35.03,70.06-55.25,106.03-12.7,22.33-28.44,45.61-48.43,60.89-74.29,56.19-97.33,144.11-61.83,211.11,31.97,60.18,110.26,113.08,178.67,132.59,87.69,25.15,185.72,18.34,279.29,17.4,144.82-1.41,173.5-42.79,148.81-186.9-4.23-25.15,13.4-54.31,20.92-81.57,34.09,10.34,80.4,10.11,100.15,33.15,86.28,99.21,32.91,287.51-94.27,313.84-214.17,44.43-430.21,43.73-634.5-50.07-64.88-29.86-114.72-31.74-179.14,7.05-172.79,104.61-361.33,133.77-557.86,79.93-127.42-34.79-185.25-123.66-162.68-251.54,5.17-29.62,39.73-54.31,60.89-81.11,16.22,29.15,44.9,57.6,46.78,87.45,6.11,102.03,53.37,164.09,154.45,163.39,84.16-.47,168.32-16.93,251.78-30.33,95.45-15.52,154.45-82.05,197.24-161.03,48.43-89.1,21.39-153.28-71-195.12-20.92-9.4-37.38-30.09-58.54-36.91-38.79-12.46-79.22-23.51-119.66-25.86-133.53-7.76-268.71-1.18-400.59-19.75-134.71-19.04-265.88-62.3-398.94-92.62-225.22-51.25-418.69,29.62-583.72,169.73-177.49,150.46-263.53,362.74-140.82,622.51,78.75,166.68,142.7,340.64,205.7,514.14,90.04,247.55,197.94,487.57,392.83,667.65,236.5,218.63,238.14,536,364.86,799.77,17.4,36.2,10.11,87.45,4.47,130.71-34.09,264.71-245.67,361.57-467.36,217.22-19.04-12.46-47.02-11.05-70.76-15.99-3.53,24.92-11.99,50.54-9.4,74.76,7.29,68.88,20.22,137.06,28.92,205.7,52.42,415.64,104.14,831.51,157.04,1247.38,14.81,116.13,40.2,231.56,47.72,348.17,35.73,546.58,128.12,1082.58,306.79,1600.72,57.83,167.38,113.08,341.11,245.9,471.59,235.32,231.32,524.24,321.13,876.87,323.71ZM438.14,7646.06c-4.94.24-10.11.71-15.05.94,24.92,374.26,47.49,748.52,75.23,1122.55,22.57,303.73,54.31,606.53,75.46,910.26,10.81,154.92,166.91,362.27,319.25,388.6,56.66,9.87,125.54,1.18,176.79-23.74,101.32-48.9,189.48-122.72,224.74-235.56,41.85-133.53,82.99-268.71,106.73-406.23,13.87-79.93,42.55-115.43,120.37-116.84,78.99-1.41,158.21-7.52,237.2-7.05,271.53,1.65,543.52-2.35,814.58,9.64,365.56,16.22,730.42,47.25,1095.75,67.23,122.48,6.82,245.67.24,368.62-2.12,72.41-1.41,118.01,25.39,125.3,102.97,7.29,78.75,13.4,157.74,25.62,235.79,32.44,209.7,231.33,360.16,442.91,338.29,132.59-13.64,206.88-75.7,218.63-208.52,18.57-212.52,41.14-426.92,32.44-639.21-9.4-230.62-53.37-459.83-81.57-689.75-47.96-392.6-102.03-784.73-141.05-1178.26-45.61-460.54-73.11-922.96-117.31-1383.49-39.73-414.23-91.92-827.28-137.53-1241.03-43.73-396.12-84.4-792.72-129.06-1188.84-30.8-273.64-67.47-546.35-98.27-819.99-16.46-145.52-24.69-291.74-39.5-437.5-1.88-19.51-19.75-37.38-30.09-56.19-15.05,11.52-34.79,19.98-44.67,35.03-27.04,41.85-51.25,85.34-73.82,129.77-80.87,158.92-154.22,321.84-242.14,476.76-192.77,339.7-415.17,665.3-459.6,1068.95-10.34,94.74-30.09,197.47,60.89,257.66,89.33,59.24,186.89,25.86,273.88-25.15,24.69-14.58,49.37-33.85,66.06-56.66,65.59-89.1,126.01-181.96,192.77-270.12,25.39-33.62,59.01-64.18,95.45-84.63,19.75-11.05,53.13,1.65,80.4,3.76-3.29,24.21.47,53.37-11.52,71.94-38.32,58.77-88.16,110.26-123.42,170.44-50.31,86.04-140.82,169.5-39.96,280.7,11.75,12.93,9.4,46.55,2.59,67.23-44.67,138-11.05,271.29,11.28,408.11,41.85,257.19,89.1,515.08,104.15,774.38,15.05,259.54-28.68,522.84-7.29,781.2,39.96,483.11-37.85,953.75-109.08,1425.81-28.21,187.36-101.09,360.39-242.14,497.92-102.5,100.15-196.77,208.76-299.97,307.97-140.11,134.94-293.86,257.42-489.69,292.69-327.71,59.24-655.9,54.78-964.1-88.39-180.31-83.69-351.46-195.12-460.07-367.44-71-112.84-124.83-240.49-163.62-368.38-108.61-358.75-212.52-719.61-250.13-1094.81-31.74-317.6-61.59-635.44-94.04-952.81-39.02-378.96-81.57-757.45-118.95-1136.65-9.87-101.32-3.53-204.29-9.87-306.09-4-64.41-8.23-131.88-29.86-191.6-20.45-56.42-65.59-103.44-95.68-157.04-23.27-41.61-98.97-87.45-39.73-131.65,66.3-49.13,96.86,35.73,131.42,77.11,76.87,91.69,146.93,189.25,226.86,277.87,34.09,37.85,73.11,89.57,142.23,58.07,68.41-31.03,107.2-84.16,111.2-156.33,6.58-118.48,25.86-239.08-65.82-341.82-34.09-38.32-53.83-90.51-74.52-138.94-10.58-25.15-7.76-55.72-12.93-83.69-9.4-51.25-8.23-109.55-33.15-151.87-36.67-62.06-95.45-110.26-139.64-168.56-84.87-111.9-182.66-217.93-244.73-341.82-110.02-218.87-197-449.49-295.51-674.23-10.58-24.21-34.32-42.79-52.19-63.94-16.69,24.68-44.67,47.72-47.96,74.05-26.33,203.12-62.06,406.7-67.71,610.76-9.64,345.58-12.93,692.57,5.17,1037.68,44.2,843.03,101.56,1685.58,154.69,2528.14,23.27,365.56,49.6,731.12,74.29,1096.68ZM4234.35,1249.78c6.11-43.02,17.4-69.59,11.52-91.69-30.8-117.54-46.78-244.96-105.08-347.93-61.59-109.08-95.45-203.35-54.77-326.54,39.26-118.48.94-226.15-108.61-286.34-74.52-40.91-162.45-64.41-247.31-77.11-106.97-15.99-186.66,42.79-219.81,145.28-22.1,68.18-62.06,92.39-132.59,78.75-192.3-37.14-384.37-76.17-577.85-105.79-275.05-42.08-550.11-94.98-827.04-109.55-427.39-22.8-818.34,109.79-1171.45,350.75-67.47,46.08-126.24,69.59-192.07-4.7-25.86-29.15-66.3-48.9-103.91-62.77-139.17-51.48-304.2,22.57-375.67,164.33-56.89,113.08-25.39,186.19,123.89,280.7,54.31,34.32,74.76,83.46,39.97,133.77-125.54,181.25-88.86,389.07-100.85,588.19-2.35,37.14,28.21,76.4,43.49,114.49,27.98-27.27,59.24-51.72,83.22-82.05,209.93-267.3,462.42-438.67,822.81-371.2,56.66,10.58,96.39-4.47,90.04-70.06-8.93-91.45,42.55-149.75,118.48-156.8,72.41-6.82,160.8,7.76,218.16,47.72,33.62,23.27,33.38,116.6,24.45,174.67-13.16,84.16-5.88,117.31,76.64,113.78,112.61-4.7,225.68-19.28,336.18-42.08,67.23-13.87,129.3-51.48,194.42-76.87,213.69-83.46,411.17-4.7,602.53,74.52,142.7,59.24,291.51,57.83,431.39,41.38,183.61-21.63,362.04-90.04,542.35-139.64,149.99-41.14,299.74-84.63,457.48,42.78Z"/>
  <path class="cls-1" d="m2948.65,1225.56c-106.73.71-168.09-51.01-170.44-143.64-2.35-91.21,99.91-180.55,204.06-178.2,86.75,1.88,179.84,89.8,182.43,172.08,2.82,95.68-73.82,148.81-216.05,149.75Z"/>
</svg>